<svg aria-hidden="true" style="position: absolute; width: 0; height: 0; overflow: hidden;" version="1.1" xmlns="http://www.w3.org/2000/svg" xmlns:xlink="http://www.w3.org/1999/xlink">
<defs>
<symbol id="icon-icon-1" viewBox="0 0 20 32">
<path d="M9.846 0.615c-1.020 0-1.846 0.827-1.846 1.846v0 19.926l-4.187-4.502c-0.338-0.363-0.819-0.588-1.353-0.588-1.021 0-1.849 0.828-1.849 1.849 0 0.488 0.189 0.931 0.497 1.261l-0.001-0.001 8.736 9.383 8.736-9.383c0.308-0.329 0.496-0.773 0.496-1.26 0-1.021-0.827-1.848-1.848-1.848-0.533 0-1.013 0.226-1.35 0.587l-0.001 0.001-4.185 4.502v-19.926c0-1.020-0.827-1.846-1.846-1.846v0z"></path>
</symbol>
<symbol id="icon-Clover" viewBox="0 0 31 32">
<path d="M23.067 8.236c1.553 1.553 1.553 4.072 0 5.625-0.64 0.64-1.445 1.017-2.278 1.129-1.864 0.251-4.127 0.119-5.457 1.449s-1.198 3.593-1.449 5.457c-0.112 0.833-0.489 1.638-1.129 2.278-1.553 1.553-4.072 1.553-5.625 0s-1.553-4.072 0-5.625c0.64-0.64 1.445-1.017 2.278-1.129 1.864-0.251 4.127-0.119 5.457-1.449s1.198-3.593 1.449-5.457c0.112-0.833 0.489-1.638 1.129-2.278 1.553-1.553 4.072-1.553 5.625 0z"></path>
<path d="M23.067 24.174c-1.553 1.553-4.072 1.553-5.625 0-0.64-0.64-1.017-1.445-1.129-2.278-0.251-1.864-0.119-4.127-1.449-5.457s-3.593-1.198-5.457-1.449c-0.833-0.112-1.638-0.489-2.278-1.129-1.553-1.553-1.553-4.072 0-5.625s4.072-1.553 5.625 0c0.64 0.64 1.017 1.445 1.129 2.278 0.251 1.864 0.119 4.127 1.449 5.457s3.593 1.198 5.457 1.449c0.833 0.112 1.638 0.489 2.278 1.129 1.553 1.553 1.553 4.072 0 5.625z"></path>
</symbol>
<symbol id="icon-Union" viewBox="0 0 146 32">
<path d="M129.778 0c8.837 0 16 7.163 16 16s-7.163 16-16 16c-3.785 0-7.263-1.315-10.002-3.512-5.57-4.469-11.301-10.71-18.442-10.71s-12.873 6.241-18.442 10.71c-2.739 2.197-6.217 3.512-10.002 3.512s-7.263-1.315-10.002-3.512c-5.57-4.469-11.301-10.71-18.442-10.71s-12.873 6.241-18.442 10.71c-2.739 2.197-6.217 3.512-10.002 3.512-8.837 0-16-7.163-16-16s7.163-16 16-16c3.785 0 7.263 1.315 10.002 3.512 5.57 4.469 11.301 10.71 18.442 10.71s12.873-6.241 18.442-10.71c2.739-2.197 6.217-3.512 10.002-3.512s7.263 1.315 10.002 3.512c5.57 4.469 11.301 10.71 18.442 10.71s12.873-6.241 18.442-10.71c2.739-2.197 6.217-3.512 10.002-3.512z"></path>
</symbol>
<symbol id="icon-Arrow-right" viewBox="0 0 53 32">
<path fill="none" stroke="#eff3f5" style="stroke: var(--color1, #eff3f5)" stroke-linejoin="miter" stroke-linecap="butt" stroke-miterlimit="4" stroke-width="5.3333" d="M-25.333 16h73.333M48 16l-13.316 13.316M48 16l-13.317-13.317"></path>
</symbol>
<symbol id="icon-Arrow-left" viewBox="0 0 53 32">
<path fill="none" stroke="#eff3f5" style="stroke: var(--color1, #eff3f5)" stroke-linejoin="miter" stroke-linecap="butt" stroke-miterlimit="4" stroke-width="5.3333" d="M78.667 16h-73.333M5.333 16l13.316 13.316M5.333 16l13.317-13.317"></path>
</symbol>
</defs>
</svg>
