<svg aria-hidden="true" style="position: absolute; width: 0; height: 0; overflow: hidden;" version="1.1" xmlns="http://www.w3.org/2000/svg" xmlns:xlink="http://www.w3.org/1999/xlink">
<defs>
<symbol id="icon-icon-1" viewBox="0 0 32 32">
<path d="M3.214 0c-1.407 0.002-2.603 0.906-3.040 2.165l-0.007 0.023c-0.142 0.421-0.194 0.869-0.153 1.314 0.573 5.234 2.337 9.964 5.014 14.040l-0.074-0.12c2.512 3.906 5.742 7.129 9.53 9.559l0.125 0.075c3.948 2.591 8.663 4.351 13.739 4.919l0.145 0.013c0.086 0.008 0.187 0.013 0.288 0.013 1.311 0 2.439-0.782 2.942-1.906l0.008-0.020c0.178-0.411 0.272-0.853 0.27-1.301v-4.816c0.001-0.024 0.001-0.052 0.001-0.081 0-1.618-1.196-2.956-2.752-3.179l-0.017-0.002c-1.69-0.224-3.216-0.618-4.665-1.17l0.141 0.047c-0.336-0.13-0.725-0.205-1.132-0.205-0.882 0-1.681 0.354-2.263 0.928l0-0-2.041 2.039c-4.049-2.325-7.322-5.591-9.589-9.51l-0.066-0.124 2.046-2.039c0.575-0.578 0.93-1.375 0.93-2.255 0-0.408-0.076-0.798-0.215-1.156l0.007 0.022c-0.505-1.303-0.9-2.824-1.115-4.403l-0.012-0.107c-0.227-1.571-1.564-2.764-3.18-2.764-0.013 0-0.025 0-0.038 0l0.002-0z"></path>
</symbol>
<symbol id="icon-icon-11" viewBox="0 0 20 32">
<path d="M9.846 0.615c-1.020 0-1.846 0.827-1.846 1.846v0 19.926l-4.187-4.502c-0.338-0.363-0.819-0.588-1.353-0.588-1.021 0-1.849 0.828-1.849 1.849 0 0.488 0.189 0.931 0.497 1.261l-0.001-0.001 8.736 9.383 8.736-9.383c0.308-0.329 0.496-0.773 0.496-1.26 0-1.021-0.827-1.848-1.848-1.848-0.533 0-1.013 0.226-1.35 0.587l-0.001 0.001-4.185 4.502v-19.926c0-1.020-0.827-1.846-1.846-1.846v0z"></path>
</symbol>
<symbol id="icon-Clover" viewBox="0 0 31 32">
<path d="M23.067 8.236c1.553 1.553 1.553 4.072 0 5.625-0.64 0.64-1.445 1.017-2.278 1.129-1.864 0.251-4.127 0.119-5.457 1.449s-1.198 3.593-1.449 5.457c-0.112 0.833-0.489 1.638-1.129 2.278-1.553 1.553-4.072 1.553-5.625 0s-1.553-4.072 0-5.625c0.64-0.64 1.445-1.017 2.278-1.129 1.864-0.251 4.127-0.119 5.457-1.449s1.198-3.593 1.449-5.457c0.112-0.833 0.489-1.638 1.129-2.278 1.553-1.553 4.072-1.553 5.625 0z"></path>
<path d="M23.067 24.174c-1.553 1.553-4.072 1.553-5.625 0-0.64-0.64-1.017-1.445-1.129-2.278-0.251-1.864-0.119-4.127-1.449-5.457s-3.593-1.198-5.457-1.449c-0.833-0.112-1.638-0.489-2.278-1.129-1.553-1.553-1.553-4.072 0-5.625s4.072-1.553 5.625 0c0.64 0.64 1.017 1.445 1.129 2.278 0.251 1.864 0.119 4.127 1.449 5.457s3.593 1.198 5.457 1.449c0.833 0.112 1.638 0.489 2.278 1.129 1.553 1.553 1.553 4.072 0 5.625z"></path>
</symbol>
<symbol id="icon-Union" viewBox="0 0 146 32">
<path d="M129.778 0c8.837 0 16 7.163 16 16s-7.163 16-16 16c-3.785 0-7.263-1.315-10.002-3.512-5.57-4.469-11.301-10.71-18.442-10.71s-12.873 6.241-18.442 10.71c-2.739 2.197-6.217 3.512-10.002 3.512s-7.263-1.315-10.002-3.512c-5.57-4.469-11.301-10.71-18.442-10.71s-12.873 6.241-18.442 10.71c-2.739 2.197-6.217 3.512-10.002 3.512-8.837 0-16-7.163-16-16s7.163-16 16-16c3.785 0 7.263 1.315 10.002 3.512 5.57 4.469 11.301 10.71 18.442 10.71s12.873-6.241 18.442-10.71c2.739-2.197 6.217-3.512 10.002-3.512s7.263 1.315 10.002 3.512c5.57 4.469 11.301 10.71 18.442 10.71s12.873-6.241 18.442-10.71c2.739-2.197 6.217-3.512 10.002-3.512z"></path>
</symbol>
<symbol id="icon-Icon-2-1" viewBox="0 0 32 32">
<path fill="#eff3f5" style="fill: var(--color1, #eff3f5)" d="M16.003 8c2.084 0 2.352 0.009 3.181 0.048 0.847 0.037 1.44 0.176 1.963 0.377 0.553 0.208 1.056 0.536 1.472 0.957l-0.231 0.235 0.235-0.231 0.152 0.157c0.351 0.383 0.623 0.828 0.807 1.317 0.204 0.521 0.343 1.117 0.38 1.964 0.036 0.827 0.039 1.093 0.039 3.176 0 2.085-0.009 2.352-0.045 3.177-0.037 0.847-0.175 1.44-0.377 1.964-0.443 1.121-1.314 1.992-2.406 2.425l-0.029 0.010c-0.521 0.203-1.119 0.34-1.965 0.377-0.827 0.036-1.093 0.045-3.177 0.045s-2.352-0.009-3.177-0.045c-0.847-0.037-1.44-0.176-1.964-0.377-0.575-0.223-1.066-0.549-1.472-0.96l-0-0 0.232-0.232-0.235 0.231 0.001 0.003c-0.413-0.407-0.74-0.9-0.953-1.449l-0.010-0.028c-0.203-0.521-0.34-1.117-0.377-1.963-0.036-0.827-0.045-1.093-0.045-3.179s0.009-2.351 0.048-3.18c0.037-0.847 0.175-1.44 0.377-1.963 0.183-0.484 0.457-0.931 0.805-1.313l0.152-0.157 0.236 0.229-0.232-0.235c0.406-0.413 0.898-0.739 1.447-0.951l0.028-0.009c0.521-0.203 1.117-0.34 1.964-0.377 0.827-0.036 1.093-0.045 3.177-0.045zM16 12.211c-2.093 0.001-3.789 1.698-3.789 3.791s1.697 3.791 3.791 3.791c0 0 0.001 0 0.001 0h-0c2.093-0.001 3.789-1.698 3.789-3.791s-1.697-3.791-3.791-3.791c-0 0-0.001 0-0.001 0h0zM20.632 9.684c-0.93 0-1.684 0.754-1.684 1.684s0.754 1.684 1.684 1.684v0c0.93 0 1.684-0.754 1.684-1.684s-0.754-1.684-1.684-1.684v0z"></path>
</symbol>
<symbol id="icon-you-1" viewBox="0 0 32 32">
<path fill="#eff3f5" style="fill: var(--color1, #eff3f5)" d="M16.003 10c0.032 0 3.227 0.021 5.341 0.173l0.028 0.003 0.080 0.011c0.351 0.040 1.080 0.12 1.724 0.8 0.556 0.576 0.692 1.712 0.707 1.84v0.005c0.005 0.053 0.117 1.316 0.117 2.584v1.187c0 1.268-0.112 2.532-0.117 2.585l-0.003 0.015c-0.016 0.125-0.169 1.236-0.699 1.807-0.636 0.693-1.355 0.768-1.7 0.804l-0.089 0.011-0.028 0.003c-2.116 0.152-5.309 0.173-5.341 0.173h-0.009c-0.163-0.003-3.992-0.060-5.213-0.173l-0.037-0.007c-0.037-0.007-0.095-0.012-0.16-0.019-0.412-0.047-1.176-0.133-1.781-0.789-0.553-0.577-0.689-1.689-0.703-1.817l-0.001-0.007c-0.005-0.055-0.117-1.317-0.117-2.585v-1.187c0-1.267 0.112-2.531 0.117-2.584l0.003-0.016c0.016-0.124 0.168-1.235 0.699-1.805 0.645-0.703 1.368-0.787 1.715-0.827l0.075-0.008 0.029-0.003c2.133-0.152 5.328-0.173 5.36-0.173zM14.829 13.608c-0.096-0.049-0.209-0.078-0.328-0.078-0.128 0-0.248 0.033-0.353 0.090l0.004-0.002c-0.197 0.102-0.33 0.303-0.333 0.536v3.691c0 0.221 0.124 0.423 0.333 0.536 0.101 0.056 0.221 0.089 0.35 0.089 0.118 0 0.229-0.028 0.328-0.077l-0.004 0.002 3.723-1.828c0.209-0.1 0.352-0.305 0.36-0.546l0-0.001c-0.002-0.243-0.145-0.451-0.351-0.549l-0.004-0.002z"></path>
</symbol>
<symbol id="icon-fb-1" viewBox="0 0 32 32">
<path fill="#eff3f5" style="fill: var(--color1, #eff3f5)" d="M18.54 10.657h1.46v-2.544c-0.617-0.072-1.331-0.113-2.055-0.113-0.026 0-0.051 0-0.077 0h0.004c-2.107 0-3.548 1.325-3.548 3.76v2.24h-2.324v2.844h2.324v7.156h2.849v-7.155h2.229l0.355-2.844h-2.585v-1.961c0-0.823 0.223-1.385 1.368-1.385z"></path>
</symbol>
<symbol id="icon-Button-1" viewBox="0 0 32 32">
<path fill="#eff3f5" style="fill: var(--color1, #eff3f5)" d="M21.007 11.421c-0.123-0.067-0.222-0.127-0.318-0.192l0.014 0.009c-0.293-0.203-0.548-0.43-0.773-0.684l-0.004-0.004c-0.442-0.514-0.752-1.153-0.873-1.857l-0.003-0.023h0.003c-0.028-0.138-0.044-0.296-0.044-0.458 0-0.075 0.003-0.149 0.010-0.222l-0.001 0.009h-2.643v10.627q0.001 0.213-0.005 0.421l-0.003 0.053-0.001 0.023v0.007c-0.027 0.38-0.145 0.749-0.343 1.072-0.196 0.323-0.467 0.591-0.787 0.78-0.333 0.196-0.709 0.3-1.093 0.299-1.231 0-2.227-1.044-2.227-2.333 0-1.288 0.996-2.333 2.227-2.333 0.233 0 0.467 0.040 0.687 0.113l0.004-2.797c-0.189-0.027-0.408-0.042-0.63-0.042-0.491 0-0.965 0.075-1.411 0.214l0.034-0.009c-0.652 0.199-1.256 0.535-1.776 0.988-0.451 0.409-0.828 0.888-1.117 1.422l-0.014 0.028c-0.112 0.2-0.533 1.004-0.584 2.308-0.032 0.74 0.183 1.507 0.284 1.824v0.007c0.064 0.187 0.312 0.824 0.717 1.36 0.327 0.432 0.712 0.811 1.144 1.124v-0.007l0.007 0.007c1.28 0.904 2.697 0.844 2.697 0.844 0.245-0.009 1.068 0 2.001-0.46 0.641-0.32 1.182-0.747 1.621-1.263l0.006-0.007c0.376-0.453 0.676-0.972 0.885-1.531 0.24-0.653 0.319-1.437 0.319-1.751v-5.637c0.032 0.020 0.459 0.313 0.459 0.313s0.616 0.411 1.575 0.677c0.688 0.191 1.616 0.229 1.616 0.229v-2.725c-0.325 0.036-0.985-0.071-1.66-0.421z"></path>
</symbol>
<symbol id="icon-Arrow-right" viewBox="0 0 53 32">
<path fill="none" stroke="#eff3f5" style="stroke: var(--color1, #eff3f5)" stroke-linejoin="miter" stroke-linecap="butt" stroke-miterlimit="4" stroke-width="5.3333" d="M-25.333 16h73.333M48 16l-13.316 13.316M48 16l-13.317-13.317"></path>
</symbol>
<symbol id="icon-Arrow-left" viewBox="0 0 53 32">
<path fill="none" stroke="#eff3f5" style="stroke: var(--color1, #eff3f5)" stroke-linejoin="miter" stroke-linecap="butt" stroke-miterlimit="4" stroke-width="5.3333" d="M78.667 16h-73.333M5.333 16l13.316 13.316M5.333 16l13.317-13.317"></path>
</symbol>
</defs>
</svg>
